<svg width="14" height="18" viewBox="0 0 14 18" fill="none" xmlns="http://www.w3.org/2000/svg">
<path fill-rule="evenodd" clip-rule="evenodd" d="M10.231 6.35294V4.76471C10.231 3.01039 8.78449 1.58824 7.00019 1.58824C5.21588 1.58824 3.76942 3.01039 3.76942 4.76471V6.35294L10.231 6.35294ZM2.15403 4.76471V6.35294H1.07692C0.482155 6.35294 0 6.82699 0 7.41176V15.8823C0 17.0519 0.96431 18 2.15385 18H11.8462C13.0357 18 14 17.0519 14 15.8823V7.41176C14 6.82699 13.5178 6.35294 12.9231 6.35294H11.8463V4.76471C11.8463 2.13323 9.67664 0 7.00019 0C4.32373 0 2.15403 2.13323 2.15403 4.76471ZM1.61538 7.94117H2.15403V7.94118H11.8463L12.3846 7.94117V15.8823C12.3846 16.1747 12.1435 16.4118 11.8462 16.4118H2.15385C1.85646 16.4118 1.61538 16.1747 1.61538 15.8823V7.94117ZM7.00008 10.5882C6.70269 10.5882 6.46161 10.8293 6.46161 11.1267V13.2263C6.46161 13.5236 6.70269 13.7647 7.00008 13.7647C7.29746 13.7647 7.53854 13.5236 7.53854 13.2262V11.1267C7.53854 10.8293 7.29746 10.5882 7.00008 10.5882Z" fill="#6B6B6B"/>
</svg>
