<svg width="20" height="14" viewBox="0 0 20 14" fill="none" xmlns="http://www.w3.org/2000/svg">
<path d="M19.9614 6.7725C18.5386 2.7216 14.5357 0 10 0C5.46429 0 1.46143 2.7216 0.0385714 6.7725C-0.0128571 6.9195 -0.0128571 7.0805 0.0385714 7.2275C1.46143 11.2784 5.46429 14 10 14C14.5357 14 18.5386 11.2784 19.9614 7.2275C20.0129 7.0805 20.0129 6.9195 19.9614 6.7725ZM10 11.2C7.63643 11.2 5.71429 9.3163 5.71429 7C5.71429 4.6837 7.63643 2.8 10 2.8C12.3636 2.8 14.2857 4.6837 14.2857 7C14.2857 9.3163 12.3636 11.2 10 11.2Z" fill="#6B6B6B"/>
</svg>
