<svg width="18" height="18" viewBox="0 0 18 18" fill="none" xmlns="http://www.w3.org/2000/svg">
<path fill-rule="evenodd" clip-rule="evenodd" d="M1.63636 7.46591C1.63636 4.24634 4.24634 1.63636 7.46591 1.63636C10.6855 1.63636 13.2955 4.24634 13.2955 7.46591C13.2955 10.6855 10.6855 13.2955 7.46591 13.2955C4.24634 13.2955 1.63636 10.6855 1.63636 7.46591ZM7.46591 0C3.3426 0 0 3.3426 0 7.46591C0 11.5892 3.3426 14.9318 7.46591 14.9318C9.2328 14.9318 10.8563 14.318 12.1349 13.2921L16.6032 17.7604C16.9228 18.0799 17.4408 18.0799 17.7603 17.7604C18.0798 17.4408 18.0798 16.9228 17.7603 16.6033L13.292 12.135C14.318 10.8564 14.9318 9.23282 14.9318 7.46591C14.9318 3.3426 11.5892 0 7.46591 0Z" fill="#6B6B6B"/>
</svg>
