<svg width="20" height="20" viewBox="0 0 20 20" fill="none" xmlns="http://www.w3.org/2000/svg">
<path fill-rule="evenodd" clip-rule="evenodd" d="M12.7778 9.65735C11.9556 10.2068 10.9889 10.5 10 10.5C8.67392 10.5 7.40215 9.97321 6.46447 9.03553C5.52678 8.09785 5 6.82608 5 5.5C5 4.51109 5.29324 3.54439 5.84265 2.72215C6.39206 1.8999 7.17295 1.25904 8.08658 0.880603C9.00021 0.502165 10.0055 0.403148 10.9755 0.596074C11.9454 0.789 12.8363 1.2652 13.5355 1.96447C14.2348 2.66373 14.711 3.55464 14.9039 4.52455C15.0968 5.49445 14.9978 6.49979 14.6194 7.41342C14.241 8.32705 13.6001 9.10794 12.7778 9.65735ZM11.9842 2.53047C11.3969 2.13803 10.7064 1.92857 10 1.92857C9.0528 1.92857 8.14439 2.30485 7.47462 2.97462C6.80485 3.64439 6.42857 4.5528 6.42857 5.5C6.42857 6.20636 6.63803 6.89686 7.03047 7.48418C7.4229 8.0715 7.98068 8.52926 8.63327 8.79957C9.28587 9.06988 10.004 9.14061 10.6968 9.0028C11.3895 8.865 12.0259 8.52485 12.5254 8.02538C13.0249 7.52591 13.365 6.88954 13.5028 6.19675C13.6406 5.50396 13.5699 4.78587 13.2996 4.13327C13.0293 3.48068 12.5715 2.9229 11.9842 2.53047ZM9.25 11.5H10.75C12.938 11.5 15.0365 12.2726 16.5836 13.6479C18.1308 15.0231 19 16.8884 19 18.8333C19 19.0101 18.921 19.1797 18.7803 19.3047C18.6397 19.4298 18.4489 19.5 18.25 19.5H1.75C1.55109 19.5 1.36032 19.4298 1.21967 19.3047C1.07902 19.1797 1 19.0101 1 18.8333C1 16.8884 1.86919 15.0231 3.41637 13.6479C4.96354 12.2726 7.06196 11.5 9.25 11.5ZM4.75201 14.3621C3.51513 15.346 2.72942 16.7004 2.545 18.1667H17.455C17.2706 16.7004 16.4849 15.346 15.248 14.3621C14.0111 13.3783 12.4098 12.834 10.75 12.8333H9.25C7.5902 12.834 5.98889 13.3783 4.75201 14.3621Z" fill="#6B6B6B"/>
<path d="M6.46447 9.03553L6.53518 8.96482L6.46447 9.03553ZM5.84265 2.72215L5.7595 2.66659L5.84265 2.72215ZM8.08658 0.880604L8.12485 0.972992L8.08658 0.880604ZM13.5355 1.96447L13.4648 2.03518L13.5355 1.96447ZM14.9039 4.52455L15.002 4.50504L14.9039 4.52455ZM14.6194 7.41342L14.7118 7.45169L14.6194 7.41342ZM11.9842 2.53047L12.0397 2.44732V2.44732L11.9842 2.53047ZM7.47462 2.97462L7.54533 3.04533L7.47462 2.97462ZM6.42857 5.5H6.32857H6.42857ZM7.03047 7.48418L6.94732 7.53974L7.03047 7.48418ZM8.63327 8.79957L8.67154 8.70718H8.67154L8.63327 8.79957ZM10.6967 9.0028L10.6772 8.90473L10.6967 9.0028ZM12.5254 8.02538L12.5961 8.09609H12.5961L12.5254 8.02538ZM13.5028 6.19675L13.4047 6.17724L13.5028 6.19675ZM13.2996 4.13327L13.2072 4.17154V4.17154L13.2996 4.13327ZM16.5836 13.6479L16.5172 13.7226L16.5836 13.6479ZM1.21967 19.3047L1.28611 19.23L1.21967 19.3047ZM3.41637 13.6479L3.48281 13.7226L3.41637 13.6479ZM2.545 18.1667L2.44578 18.1542L2.43163 18.2667H2.545V18.1667ZM17.455 18.1667V18.2667H17.5684L17.5542 18.1542L17.455 18.1667ZM15.248 14.3621L15.1857 14.4404L15.248 14.3621ZM10.75 12.8333L10.75 12.7333H10.75V12.8333ZM9.25 12.8333V12.7333H9.24996L9.25 12.8333ZM10 10.6C11.0087 10.6 11.9947 10.3009 12.8334 9.7405L12.7223 9.5742C11.9165 10.1126 10.9691 10.4 10 10.4V10.6ZM6.39376 9.10624C7.35019 10.0627 8.64739 10.6 10 10.6V10.4C8.70044 10.4 7.4541 9.88375 6.53518 8.96482L6.39376 9.10624ZM4.9 5.5C4.9 6.8526 5.43732 8.14981 6.39376 9.10624L6.53518 8.96482C5.61625 8.0459 5.1 6.79956 5.1 5.5H4.9ZM5.7595 2.66659C5.19911 3.50528 4.9 4.49132 4.9 5.5H5.1C5.1 4.53087 5.38738 3.58351 5.9258 2.77771L5.7595 2.66659ZM8.04831 0.788217C7.11641 1.17422 6.3199 1.8279 5.7595 2.66659L5.9258 2.77771C6.46422 1.97191 7.22949 1.34386 8.12485 0.972992L8.04831 0.788217ZM10.995 0.497997C10.0057 0.301213 8.98022 0.40221 8.04831 0.788217L8.12485 0.972992C9.02021 0.602123 10.0054 0.505087 10.9559 0.694154L10.995 0.497997ZM13.6062 1.89376C12.893 1.18051 11.9843 0.694782 10.995 0.497997L10.9559 0.694154C11.9064 0.883222 12.7795 1.3499 13.4648 2.03518L13.6062 1.89376ZM15.002 4.50504C14.8052 3.51574 14.3195 2.607 13.6062 1.89376L13.4648 2.03518C14.1501 2.72046 14.6168 3.59355 14.8058 4.54406L15.002 4.50504ZM14.7118 7.45169C15.0978 6.51978 15.1988 5.49434 15.002 4.50504L14.8058 4.54406C14.9949 5.49457 14.8979 6.47979 14.527 7.37515L14.7118 7.45169ZM12.8334 9.7405C13.6721 9.1801 14.3258 8.38359 14.7118 7.45169L14.527 7.37515C14.1561 8.27051 13.5281 9.03578 12.7223 9.5742L12.8334 9.7405ZM10 2.02857C10.6866 2.02857 11.3577 2.23217 11.9286 2.61361L12.0397 2.44732C11.436 2.0439 10.7261 1.82857 10 1.82857V2.02857ZM7.54533 3.04533C8.19635 2.39431 9.07932 2.02857 10 2.02857V1.82857C9.02628 1.82857 8.09243 2.21538 7.40391 2.90391L7.54533 3.04533ZM6.52857 5.5C6.52857 4.57932 6.89431 3.69635 7.54533 3.04533L7.40391 2.90391C6.71538 3.59244 6.32857 4.52628 6.32857 5.5H6.52857ZM7.11361 7.42862C6.73217 6.85775 6.52857 6.18658 6.52857 5.5H6.32857C6.32857 6.22614 6.5439 6.93597 6.94732 7.53974L7.11361 7.42862ZM8.67154 8.70718C8.03722 8.44444 7.49506 7.9995 7.11361 7.42862L6.94732 7.53974C7.35074 8.1435 7.92414 8.61408 8.595 8.89196L8.67154 8.70718ZM10.6772 8.90473C10.0038 9.03867 9.30586 8.96993 8.67154 8.70718L8.595 8.89196C9.26587 9.16984 10.0041 9.24255 10.7163 9.10088L10.6772 8.90473ZM12.4547 7.95467C11.9692 8.44016 11.3506 8.77078 10.6772 8.90473L10.7163 9.10088C11.4284 8.95922 12.0826 8.60955 12.5961 8.09609L12.4547 7.95467ZM13.4047 6.17724C13.2708 6.85063 12.9402 7.46918 12.4547 7.95467L12.5961 8.09609C13.1095 7.58263 13.4592 6.92845 13.6009 6.21626L13.4047 6.17724ZM13.2072 4.17154C13.4699 4.80586 13.5387 5.50385 13.4047 6.17724L13.6009 6.21626C13.7425 5.50407 13.6698 4.76587 13.392 4.09501L13.2072 4.17154ZM11.9286 2.61361C12.4995 2.99506 12.9444 3.53722 13.2072 4.17154L13.392 4.09501C13.1141 3.42414 12.6435 2.85074 12.0397 2.44732L11.9286 2.61361ZM10.75 11.4H9.25V11.6H10.75V11.4ZM16.6501 13.5731C15.0835 12.1806 12.961 11.4 10.75 11.4V11.6C12.9151 11.6 14.9894 12.3646 16.5172 13.7226L16.6501 13.5731ZM19.1 18.8333C19.1 16.8578 18.217 14.966 16.6501 13.5731L16.5172 13.7226C18.0446 15.0803 18.9 16.919 18.9 18.8333H19.1ZM18.8468 19.3795C19.0072 19.2369 19.1 19.0407 19.1 18.8333H18.9C18.9 18.9796 18.8347 19.1226 18.7139 19.23L18.8468 19.3795ZM18.25 19.6C18.4719 19.6 18.6867 19.5218 18.8468 19.3795L18.7139 19.23C18.5927 19.3378 18.4259 19.4 18.25 19.4V19.6ZM1.75 19.6H18.25V19.4H1.75V19.6ZM1.15323 19.3795C1.3133 19.5218 1.52812 19.6 1.75 19.6V19.4C1.57406 19.4 1.40735 19.3378 1.28611 19.23L1.15323 19.3795ZM0.9 18.8333C0.9 19.0407 0.992785 19.2369 1.15323 19.3795L1.28611 19.23C1.16525 19.1226 1.1 18.9796 1.1 18.8333H0.9ZM3.34993 13.5731C1.78296 14.966 0.9 16.8578 0.9 18.8333H1.1C1.1 16.919 1.95543 15.0803 3.48281 13.7226L3.34993 13.5731ZM9.25 11.4C7.039 11.4 4.91652 12.1806 3.34993 13.5731L3.48281 13.7226C5.01057 12.3646 7.08493 11.6 9.25 11.6V11.4ZM2.64422 18.1791C2.82514 16.7407 3.59626 15.4092 4.81426 14.4404L4.68976 14.2839C3.43401 15.2827 2.6337 16.6601 2.44578 18.1542L2.64422 18.1791ZM17.455 18.0667H2.545V18.2667H17.455V18.0667ZM15.1857 14.4404C16.4037 15.4092 17.1749 16.7407 17.3558 18.1791L17.5542 18.1542C17.3663 16.6601 16.566 15.2827 15.3102 14.2839L15.1857 14.4404ZM10.75 12.9333C12.3884 12.934 13.9675 13.4714 15.1857 14.4404L15.3102 14.2839C14.0547 13.2852 12.4312 12.734 10.75 12.7333L10.75 12.9333ZM9.25 12.9333H10.75V12.7333H9.25V12.9333ZM4.81426 14.4404C6.03252 13.4714 7.61162 12.934 9.25004 12.9333L9.24996 12.7333C7.56879 12.734 5.94525 13.2852 4.68976 14.2839L4.81426 14.4404Z" fill="#6B6B6B"/>
</svg>
